<svg width="386" height="255" viewBox="0 0 386 255" fill="none" xmlns="http://www.w3.org/2000/svg">
<path d="M70.448 150.792C63.1093 150.792 56.0267 149.896 49.2 148.104C42.4587 146.227 36.9547 143.837 32.688 140.936L41.008 122.248C45.0187 124.808 49.6267 126.941 54.832 128.648C60.1227 130.269 65.3707 131.08 70.576 131.08C74.0747 131.08 76.8907 130.781 79.024 130.184C81.1573 129.501 82.6933 128.648 83.632 127.624C84.656 126.515 85.168 125.235 85.168 123.784C85.168 121.736 84.2293 120.115 82.352 118.92C80.4747 117.725 78.0427 116.744 75.056 115.976C72.0693 115.208 68.7413 114.44 65.072 113.672C61.488 112.904 57.8613 111.923 54.192 110.728C50.608 109.533 47.3227 107.997 44.336 106.12C41.3493 104.157 38.9173 101.64 37.04 98.568C35.1627 95.4107 34.224 91.4427 34.224 86.664C34.224 81.288 35.6747 76.424 38.576 72.072C41.5627 67.72 46 64.2213 51.888 61.576C57.776 58.9307 65.1147 57.608 73.904 57.608C79.792 57.608 85.552 58.2907 91.184 59.656C96.9013 60.936 101.979 62.856 106.416 65.416L98.608 84.232C94.3413 81.928 90.1173 80.2213 85.936 79.112C81.7547 77.9173 77.7013 77.32 73.776 77.32C70.2773 77.32 67.4613 77.704 65.328 78.472C63.1947 79.1547 61.6587 80.0933 60.72 81.288C59.7813 82.4827 59.312 83.848 59.312 85.384C59.312 87.3467 60.208 88.9253 62 90.12C63.8773 91.2293 66.3093 92.168 69.296 92.936C72.368 93.6187 75.696 94.344 79.28 95.112C82.9493 95.88 86.576 96.8613 90.16 98.056C93.8293 99.1653 97.1573 100.701 100.144 102.664C103.131 104.541 105.52 107.059 107.312 110.216C109.189 113.288 110.128 117.171 110.128 121.864C110.128 127.069 108.635 131.891 105.648 136.328C102.747 140.68 98.352 144.179 92.464 146.824C86.6613 149.469 79.3227 150.792 70.448 150.792ZM111.083 149L150.635 59.4H175.595L215.275 149H188.907L157.931 71.816H167.915L136.939 149H111.083ZM132.715 131.592L139.243 112.904H183.019L189.547 131.592H132.715ZM222.46 149V59.4H247.804V128.904H290.556V149H222.46ZM323.881 94.088H365.481V113.032H323.881V94.088ZM325.673 129.416H372.521V149H300.585V59.4H370.857V78.984H325.673V129.416Z" fill="white"/>
<path d="M47.08 235.8C43.1333 235.8 39.2667 235.24 35.48 234.12C31.7467 232.947 28.6 231.347 26.04 229.32L30.44 221.24C32.4667 222.893 34.92 224.227 37.8 225.24C40.7333 226.253 43.7733 226.76 46.92 226.76C50.6 226.76 53.48 225.987 55.56 224.44C57.6933 222.893 58.76 220.813 58.76 218.2C58.76 216.44 58.3067 214.893 57.4 213.56C56.5467 212.227 55 211.213 52.76 210.52C50.5733 209.827 47.56 209.48 43.72 209.48H30.2L33.08 179H65.96V187.72H36.92L42.36 182.76L40.2 205.56L34.76 200.68H46.04C51.5867 200.68 56.04 201.427 59.4 202.92C62.8133 204.36 65.2933 206.387 66.84 209C68.44 211.56 69.24 214.493 69.24 217.8C69.24 221.053 68.44 224.04 66.84 226.76C65.24 229.48 62.7867 231.667 59.48 233.32C56.2267 234.973 52.0933 235.8 47.08 235.8ZM98.5988 235.8C94.1721 235.8 90.1721 234.68 86.5988 232.44C83.0788 230.2 80.3054 226.947 78.2788 222.68C76.2521 218.36 75.2388 213.133 75.2388 207C75.2388 200.867 76.2521 195.667 78.2788 191.4C80.3054 187.08 83.0788 183.8 86.5988 181.56C90.1721 179.32 94.1721 178.2 98.5988 178.2C103.079 178.2 107.079 179.32 110.599 181.56C114.119 183.8 116.892 187.08 118.919 191.4C120.999 195.667 122.039 200.867 122.039 207C122.039 213.133 120.999 218.36 118.919 222.68C116.892 226.947 114.119 230.2 110.599 232.44C107.079 234.68 103.079 235.8 98.5988 235.8ZM98.5988 226.76C101.212 226.76 103.479 226.067 105.399 224.68C107.319 223.24 108.812 221.053 109.879 218.12C110.999 215.187 111.559 211.48 111.559 207C111.559 202.467 110.999 198.76 109.879 195.88C108.812 192.947 107.319 190.787 105.399 189.4C103.479 187.96 101.212 187.24 98.5988 187.24C96.0921 187.24 93.8521 187.96 91.8788 189.4C89.9588 190.787 88.4388 192.947 87.3188 195.88C86.2521 198.76 85.7188 202.467 85.7188 207C85.7188 211.48 86.2521 215.187 87.3188 218.12C88.4388 221.053 89.9588 223.24 91.8788 224.68C93.8521 226.067 96.0921 226.76 98.5988 226.76ZM136.907 235L175.147 179H182.987L144.747 235H136.907ZM141.547 209.16C138.934 209.16 136.614 208.52 134.587 207.24C132.56 205.96 130.987 204.173 129.867 201.88C128.747 199.587 128.187 196.893 128.187 193.8C128.187 190.707 128.747 188.013 129.867 185.72C130.987 183.427 132.56 181.64 134.587 180.36C136.614 179.08 138.934 178.44 141.547 178.44C144.267 178.44 146.614 179.08 148.587 180.36C150.614 181.64 152.187 183.427 153.307 185.72C154.427 188.013 154.987 190.707 154.987 193.8C154.987 196.893 154.427 199.587 153.307 201.88C152.187 204.173 150.614 205.96 148.587 207.24C146.614 208.52 144.267 209.16 141.547 209.16ZM141.627 203.56C143.76 203.56 145.414 202.733 146.587 201.08C147.814 199.373 148.427 196.947 148.427 193.8C148.427 190.653 147.814 188.253 146.587 186.6C145.414 184.893 143.76 184.04 141.627 184.04C139.494 184.04 137.787 184.893 136.507 186.6C135.28 188.307 134.667 190.707 134.667 193.8C134.667 196.893 135.28 199.293 136.507 201C137.787 202.707 139.494 203.56 141.627 203.56ZM178.267 235.56C175.654 235.56 173.334 234.92 171.307 233.64C169.28 232.36 167.707 230.573 166.587 228.28C165.467 225.987 164.907 223.293 164.907 220.2C164.907 217.107 165.467 214.413 166.587 212.12C167.707 209.827 169.28 208.04 171.307 206.76C173.334 205.48 175.654 204.84 178.267 204.84C180.987 204.84 183.334 205.48 185.307 206.76C187.334 208.04 188.907 209.827 190.027 212.12C191.147 214.413 191.707 217.107 191.707 220.2C191.707 223.293 191.147 225.987 190.027 228.28C188.907 230.573 187.334 232.36 185.307 233.64C183.334 234.92 180.987 235.56 178.267 235.56ZM178.267 229.96C180.4 229.96 182.08 229.107 183.307 227.4C184.534 225.693 185.147 223.293 185.147 220.2C185.147 217.107 184.534 214.707 183.307 213C182.08 211.293 180.4 210.44 178.267 210.44C176.187 210.44 174.507 211.293 173.227 213C172 214.653 171.387 217.053 171.387 220.2C171.387 223.347 172 225.773 173.227 227.48C174.507 229.133 176.187 229.96 178.267 229.96ZM250.244 235.8C245.871 235.8 241.844 235.08 238.164 233.64C234.484 232.2 231.284 230.2 228.564 227.64C225.844 225.027 223.738 221.987 222.244 218.52C220.751 215 220.004 211.16 220.004 207C220.004 202.84 220.751 199.027 222.244 195.56C223.738 192.04 225.844 189 228.564 186.44C231.284 183.827 234.484 181.8 238.164 180.36C241.844 178.92 245.844 178.2 250.164 178.2C254.538 178.2 258.538 178.92 262.164 180.36C265.844 181.8 269.044 183.827 271.764 186.44C274.484 189 276.591 192.04 278.084 195.56C279.578 199.027 280.324 202.84 280.324 207C280.324 211.16 279.578 215 278.084 218.52C276.591 222.04 274.484 225.08 271.764 227.64C269.044 230.2 265.844 232.2 262.164 233.64C258.538 235.08 254.564 235.8 250.244 235.8ZM250.164 226.68C252.991 226.68 255.604 226.2 258.004 225.24C260.404 224.28 262.484 222.92 264.244 221.16C266.004 219.347 267.364 217.267 268.324 214.92C269.338 212.52 269.844 209.88 269.844 207C269.844 204.12 269.338 201.507 268.324 199.16C267.364 196.76 266.004 194.68 264.244 192.92C262.484 191.107 260.404 189.72 258.004 188.76C255.604 187.8 252.991 187.32 250.164 187.32C247.338 187.32 244.724 187.8 242.324 188.76C239.978 189.72 237.898 191.107 236.084 192.92C234.324 194.68 232.938 196.76 231.924 199.16C230.964 201.507 230.484 204.12 230.484 207C230.484 209.827 230.964 212.44 231.924 214.84C232.938 217.24 234.324 219.347 236.084 221.16C237.844 222.92 239.924 224.28 242.324 225.24C244.724 226.2 247.338 226.68 250.164 226.68ZM300.868 204.76H328.788V213.56H300.868V204.76ZM301.748 235H291.348V179H332.228V187.72H301.748V235ZM351.806 204.76H379.726V213.56H351.806V204.76ZM352.686 235H342.286V179H383.166V187.72H352.686V235Z" fill="white"/>
<path d="M19.2 229.1C19.2 231.02 18.66 232.527 17.58 233.62C16.5 234.7 14.94 235.24 12.9 235.24H5V232.64H12.8C14.24 232.64 15.2867 232.333 15.94 231.72C16.5933 231.093 16.92 230.213 16.92 229.08C16.92 227.947 16.5933 227.073 15.94 226.46C15.2867 225.847 14.24 225.54 12.8 225.54H5V222.98H12.9C14.94 222.98 16.5 223.527 17.58 224.62C18.66 225.7 19.2 227.193 19.2 229.1ZM19 219.339H5L5 213.579C5 212.339 5.2 211.279 5.6 210.399C6 209.505 6.57333 208.819 7.32 208.339C8.06667 207.859 8.95333 207.619 9.98 207.619C11.0067 207.619 11.8933 207.859 12.64 208.339C13.3867 208.819 13.96 209.505 14.36 210.399C14.76 211.279 14.96 212.339 14.96 213.579V217.899L13.74 216.739H19V219.339ZM14.02 216.739L12.76 217.899V213.699C12.76 212.552 12.52 211.692 12.04 211.119C11.5467 210.532 10.86 210.239 9.98 210.239C9.08667 210.239 8.4 210.532 7.92 211.119C7.44 211.692 7.2 212.552 7.2 213.699L7.2 217.899L5.92 216.739H14.02ZM19 196.46H7.2L7.2 201.1H5L5 189.22H7.2V193.86H19V196.46ZM19.2 180.904C19.2 181.997 19.02 183.004 18.66 183.924C18.3 184.844 17.8 185.644 17.16 186.324C16.5067 187.004 15.7467 187.53 14.88 187.904C14 188.277 13.04 188.464 12 188.464C10.96 188.464 10.0067 188.277 9.14 187.904C8.26 187.53 7.5 187.004 6.86 186.324C6.20667 185.644 5.7 184.844 5.34 183.924C4.98 183.004 4.8 182.004 4.8 180.924C4.8 179.83 4.98 178.83 5.34 177.924C5.7 177.004 6.20667 176.204 6.86 175.524C7.5 174.844 8.26 174.317 9.14 173.944C10.0067 173.57 10.96 173.384 12 173.384C13.04 173.384 14 173.57 14.88 173.944C15.76 174.317 16.52 174.844 17.16 175.524C17.8 176.204 18.3 177.004 18.66 177.924C19.02 178.83 19.2 179.824 19.2 180.904ZM16.92 180.924C16.92 180.217 16.8 179.564 16.56 178.964C16.32 178.364 15.98 177.844 15.54 177.404C15.0867 176.964 14.5667 176.624 13.98 176.384C13.38 176.13 12.72 176.004 12 176.004C11.28 176.004 10.6267 176.13 10.04 176.384C9.44 176.624 8.92 176.964 8.48 177.404C8.02667 177.844 7.68 178.364 7.44 178.964C7.2 179.564 7.08 180.217 7.08 180.924C7.08 181.63 7.2 182.284 7.44 182.884C7.68 183.47 8.02667 183.99 8.48 184.444C8.92 184.884 9.44 185.23 10.04 185.484C10.6267 185.724 11.28 185.844 12 185.844C12.7067 185.844 13.36 185.724 13.96 185.484C14.56 185.23 15.0867 184.884 15.54 184.444C15.98 184.004 16.32 183.484 16.56 182.884C16.8 182.284 16.92 181.63 16.92 180.924Z" fill="white"/>
<rect x="97" width="218" height="36" fill="white"/>
<path d="M123.28 16.82H130.24V18.96H123.28V16.82ZM123.48 22.82H131.38V25H120.88V11H131.1V13.18H123.48V22.82ZM134.278 25V11H136.418L145.198 21.78H144.138V11H146.718V25H144.578L135.798 14.22H136.858V25H134.278ZM150.47 25V11H156.59C158.11 11 159.443 11.2933 160.59 11.88C161.737 12.4667 162.63 13.28 163.27 14.32C163.91 15.36 164.23 16.5867 164.23 18C164.23 19.4 163.91 20.6267 163.27 21.68C162.63 22.72 161.737 23.5333 160.59 24.12C159.443 24.7067 158.11 25 156.59 25H150.47ZM153.07 22.8H156.47C157.523 22.8 158.43 22.6 159.19 22.2C159.963 21.8 160.557 21.24 160.97 20.52C161.397 19.8 161.61 18.96 161.61 18C161.61 17.0267 161.397 16.1867 160.97 15.48C160.557 14.76 159.963 14.2 159.19 13.8C158.43 13.4 157.523 13.2 156.47 13.2H153.07V22.8ZM179.081 25.2C177.987 25.2 176.981 25.02 176.061 24.66C175.141 24.3 174.341 23.8 173.661 23.16C172.981 22.5067 172.454 21.7467 172.081 20.88C171.707 20 171.521 19.04 171.521 18C171.521 16.96 171.707 16.0067 172.081 15.14C172.454 14.26 172.981 13.5 173.661 12.86C174.341 12.2067 175.141 11.7 176.061 11.34C176.981 10.98 177.981 10.8 179.061 10.8C180.154 10.8 181.154 10.98 182.061 11.34C182.981 11.7 183.781 12.2067 184.461 12.86C185.141 13.5 185.667 14.26 186.041 15.14C186.414 16.0067 186.601 16.96 186.601 18C186.601 19.04 186.414 20 186.041 20.88C185.667 21.76 185.141 22.52 184.461 23.16C183.781 23.8 182.981 24.3 182.061 24.66C181.154 25.02 180.161 25.2 179.081 25.2ZM179.061 22.92C179.767 22.92 180.421 22.8 181.021 22.56C181.621 22.32 182.141 21.98 182.581 21.54C183.021 21.0867 183.361 20.5667 183.601 19.98C183.854 19.38 183.981 18.72 183.981 18C183.981 17.28 183.854 16.6267 183.601 16.04C183.361 15.44 183.021 14.92 182.581 14.48C182.141 14.0267 181.621 13.68 181.021 13.44C180.421 13.2 179.767 13.08 179.061 13.08C178.354 13.08 177.701 13.2 177.101 13.44C176.514 13.68 175.994 14.0267 175.541 14.48C175.101 14.92 174.754 15.44 174.501 16.04C174.261 16.6267 174.141 17.28 174.141 18C174.141 18.7067 174.261 19.36 174.501 19.96C174.754 20.56 175.101 21.0867 175.541 21.54C175.981 21.98 176.501 22.32 177.101 22.56C177.701 22.8 178.354 22.92 179.061 22.92ZM191.737 17.44H198.717V19.64H191.737V17.44ZM191.957 25H189.357V11H199.577V13.18H191.957V25ZM211.958 25.2C210.865 25.2 209.818 25.0467 208.818 24.74C207.818 24.42 207.025 24.0133 206.438 23.52L207.338 21.5C207.898 21.94 208.592 22.3067 209.418 22.6C210.245 22.8933 211.092 23.04 211.958 23.04C212.692 23.04 213.285 22.96 213.738 22.8C214.192 22.64 214.525 22.4267 214.738 22.16C214.952 21.88 215.058 21.5667 215.058 21.22C215.058 20.7933 214.905 20.4533 214.598 20.2C214.292 19.9333 213.892 19.7267 213.398 19.58C212.918 19.42 212.378 19.2733 211.778 19.14C211.192 19.0067 210.598 18.8533 209.998 18.68C209.412 18.4933 208.872 18.26 208.378 17.98C207.898 17.6867 207.505 17.3 207.198 16.82C206.892 16.34 206.738 15.7267 206.738 14.98C206.738 14.22 206.938 13.5267 207.338 12.9C207.752 12.26 208.372 11.7533 209.198 11.38C210.038 10.9933 211.098 10.8 212.378 10.8C213.218 10.8 214.052 10.9067 214.878 11.12C215.705 11.3333 216.425 11.64 217.038 12.04L216.218 14.06C215.592 13.6867 214.945 13.4133 214.278 13.24C213.612 13.0533 212.972 12.96 212.358 12.96C211.638 12.96 211.052 13.0467 210.598 13.22C210.158 13.3933 209.832 13.62 209.618 13.9C209.418 14.18 209.318 14.5 209.318 14.86C209.318 15.2867 209.465 15.6333 209.758 15.9C210.065 16.1533 210.458 16.3533 210.938 16.5C211.432 16.6467 211.978 16.7933 212.578 16.94C213.178 17.0733 213.772 17.2267 214.358 17.4C214.958 17.5733 215.498 17.8 215.978 18.08C216.472 18.36 216.865 18.74 217.158 19.22C217.465 19.7 217.618 20.3067 217.618 21.04C217.618 21.7867 217.412 22.48 216.998 23.12C216.598 23.7467 215.978 24.2533 215.138 24.64C214.298 25.0133 213.238 25.2 211.958 25.2ZM222.596 16.82H229.556V18.96H222.596V16.82ZM222.796 22.82H230.696V25H220.196V11H230.416V13.18H222.796V22.82ZM231.615 25L237.915 11H240.475L246.795 25H244.075L238.655 12.38H239.695L234.295 25H231.615ZM234.515 21.76L235.215 19.72H242.775L243.475 21.76H234.515ZM252.915 25.2C251.822 25.2 250.775 25.0467 249.775 24.74C248.775 24.42 247.982 24.0133 247.395 23.52L248.295 21.5C248.855 21.94 249.549 22.3067 250.375 22.6C251.202 22.8933 252.049 23.04 252.915 23.04C253.649 23.04 254.242 22.96 254.695 22.8C255.149 22.64 255.482 22.4267 255.695 22.16C255.909 21.88 256.015 21.5667 256.015 21.22C256.015 20.7933 255.862 20.4533 255.555 20.2C255.249 19.9333 254.849 19.7267 254.355 19.58C253.875 19.42 253.335 19.2733 252.735 19.14C252.149 19.0067 251.555 18.8533 250.955 18.68C250.369 18.4933 249.829 18.26 249.335 17.98C248.855 17.6867 248.462 17.3 248.155 16.82C247.849 16.34 247.695 15.7267 247.695 14.98C247.695 14.22 247.895 13.5267 248.295 12.9C248.709 12.26 249.329 11.7533 250.155 11.38C250.995 10.9933 252.055 10.8 253.335 10.8C254.175 10.8 255.009 10.9067 255.835 11.12C256.662 11.3333 257.382 11.64 257.995 12.04L257.175 14.06C256.549 13.6867 255.902 13.4133 255.235 13.24C254.569 13.0533 253.929 12.96 253.315 12.96C252.595 12.96 252.009 13.0467 251.555 13.22C251.115 13.3933 250.789 13.62 250.575 13.9C250.375 14.18 250.275 14.5 250.275 14.86C250.275 15.2867 250.422 15.6333 250.715 15.9C251.022 16.1533 251.415 16.3533 251.895 16.5C252.389 16.6467 252.935 16.7933 253.535 16.94C254.135 17.0733 254.729 17.2267 255.315 17.4C255.915 17.5733 256.455 17.8 256.935 18.08C257.429 18.36 257.822 18.74 258.115 19.22C258.422 19.7 258.575 20.3067 258.575 21.04C258.575 21.7867 258.369 22.48 257.955 23.12C257.555 23.7467 256.935 24.2533 256.095 24.64C255.255 25.0133 254.195 25.2 252.915 25.2ZM267.713 25.2C266.62 25.2 265.613 25.02 264.693 24.66C263.773 24.3 262.973 23.8 262.293 23.16C261.613 22.5067 261.087 21.7467 260.713 20.88C260.34 20 260.153 19.04 260.153 18C260.153 16.96 260.34 16.0067 260.713 15.14C261.087 14.26 261.613 13.5 262.293 12.86C262.973 12.2067 263.773 11.7 264.693 11.34C265.613 10.98 266.613 10.8 267.693 10.8C268.787 10.8 269.787 10.98 270.693 11.34C271.613 11.7 272.413 12.2067 273.093 12.86C273.773 13.5 274.3 14.26 274.673 15.14C275.047 16.0067 275.233 16.96 275.233 18C275.233 19.04 275.047 20 274.673 20.88C274.3 21.76 273.773 22.52 273.093 23.16C272.413 23.8 271.613 24.3 270.693 24.66C269.787 25.02 268.793 25.2 267.713 25.2ZM267.693 22.92C268.4 22.92 269.053 22.8 269.653 22.56C270.253 22.32 270.773 21.98 271.213 21.54C271.653 21.0867 271.993 20.5667 272.233 19.98C272.487 19.38 272.613 18.72 272.613 18C272.613 17.28 272.487 16.6267 272.233 16.04C271.993 15.44 271.653 14.92 271.213 14.48C270.773 14.0267 270.253 13.68 269.653 13.44C269.053 13.2 268.4 13.08 267.693 13.08C266.987 13.08 266.333 13.2 265.733 13.44C265.147 13.68 264.627 14.0267 264.173 14.48C263.733 14.92 263.387 15.44 263.133 16.04C262.893 16.6267 262.773 17.28 262.773 18C262.773 18.7067 262.893 19.36 263.133 19.96C263.387 20.56 263.733 21.0867 264.173 21.54C264.613 21.98 265.133 22.32 265.733 22.56C266.333 22.8 266.987 22.92 267.693 22.92ZM277.989 25V11H280.129L288.909 21.78H287.849V11H290.429V25H288.289L279.509 14.22H280.569V25H277.989Z" fill="#0F3964"/>
</svg>
