<svg width="76" height="131" viewBox="0 0 76 131" fill="none" xmlns="http://www.w3.org/2000/svg">
<path d="M28.0312 32.1094V35.3438C27.8438 35.3438 27.5781 35.3281 27.2344 35.2969C26.8906 35.2656 26.6406 35.25 26.4844 35.25C24.0156 35.25 22.3438 36.0625 21.4688 37.6875C20.5938 39.3125 20.1562 43.1719 20.1562 49.2656V56.6719V66.375C20.1562 71.4375 20.3125 75.1719 20.625 77.5781C20.9375 79.9844 21.4531 81.9688 22.1719 83.5312C23.7031 86.9062 25.9531 89.4844 28.9219 91.2656C31.9219 93.0156 35.5312 93.8906 39.75 93.8906C42.9062 93.8906 45.6719 93.4375 48.0469 92.5312C50.4219 91.625 52.4531 90.2344 54.1406 88.3594C55.8281 86.4844 57.0156 84.1875 57.7031 81.4688C58.3906 78.75 58.7344 74.2188 58.7344 67.875C58.7344 60.25 58.6406 53.8438 58.4531 48.6562C58.2969 43.4375 58.0781 40.2812 57.7969 39.1875C57.3594 37.75 56.6719 36.75 55.7344 36.1875C54.8281 35.625 53.3438 35.3438 51.2812 35.3438H50.5781V32.1094C50.9531 32.1094 51.5 32.125 52.2188 32.1562C56.5312 32.375 59.6094 32.4844 61.4531 32.4844C63.2656 32.4844 66.3281 32.375 70.6406 32.1562C71.3906 32.125 71.9375 32.1094 72.2812 32.1094V35.3438H71.7188C69.875 35.3438 68.4844 35.5781 67.5469 36.0469C66.6406 36.5156 65.9844 37.2969 65.5781 38.3906C65.2344 39.2969 64.9844 41.6875 64.8281 45.5625C64.6719 49.4062 64.5938 55.6406 64.5938 64.2656V68.9531C64.5938 73.8906 64.4062 77.6719 64.0312 80.2969C63.6562 82.8906 63.0469 85.1875 62.2031 87.1875C60.4531 91.3438 57.4375 94.6094 53.1562 96.9844C48.875 99.3594 43.8281 100.547 38.0156 100.547C33.9844 100.547 30.2656 99.9531 26.8594 98.7656C23.4844 97.5781 20.6094 95.8594 18.2344 93.6094C15.6406 91.2344 13.7969 88.4375 12.7031 85.2188C11.6094 81.9688 11.0625 77.4375 11.0625 71.625C11.0625 69.375 11.0938 65.7031 11.1562 60.6094C11.2188 55.4844 11.25 51.4844 11.25 48.6094V47.1562C11.25 41.7812 10.7969 38.4688 9.89062 37.2188C9.01562 35.9688 7.28125 35.3438 4.6875 35.3438H3.84375V32.1094C6.0625 32.2344 8.17188 32.3281 10.1719 32.3906C12.1719 32.4531 14 32.4844 15.6562 32.4844C17.6562 32.4844 19.6875 32.4531 21.75 32.3906C23.8125 32.3281 25.9062 32.2344 28.0312 32.1094Z" fill="white"/>
<path d="M65 59H11V74H65V59Z" fill="#090909"/>
<path d="M19.6 68.2201C19.6 68.9601 19.45 69.6301 19.15 70.2301C18.85 70.8201 18.39 71.2901 17.77 71.6401C17.16 71.9801 16.38 72.1501 15.43 72.1501C14.1 72.1501 13.085 71.7901 12.385 71.0701C11.695 70.3401 11.35 69.3801 11.35 68.1901V61.2901H12.7V68.2351C12.7 69.1051 12.93 69.7801 13.39 70.2601C13.86 70.7401 14.565 70.9801 15.505 70.9801C16.155 70.9801 16.68 70.8651 17.08 70.6351C17.49 70.3951 17.79 70.0701 17.98 69.6601C18.17 69.2401 18.265 68.7601 18.265 68.2201V61.2901H19.6V68.2201ZM25.2617 61.2901C26.6617 61.2901 27.6817 61.5651 28.3217 62.1151C28.9617 62.6651 29.2817 63.4401 29.2817 64.4401C29.2817 64.8801 29.2067 65.3051 29.0567 65.7151C28.9167 66.1151 28.6817 66.4751 28.3517 66.7951C28.0217 67.1151 27.5817 67.3701 27.0317 67.5601C26.4817 67.7401 25.8067 67.8301 25.0067 67.8301H23.7767V72.0001H22.4267V61.2901H25.2617ZM25.1417 62.4451H23.7767V66.6751H24.8567C25.5367 66.6751 26.1017 66.6051 26.5517 66.4651C27.0017 66.3151 27.3367 66.0801 27.5567 65.7601C27.7767 65.4401 27.8867 65.0201 27.8867 64.5001C27.8867 63.8101 27.6667 63.2951 27.2267 62.9551C26.7867 62.6151 26.0917 62.4451 25.1417 62.4451ZM40.0887 66.5401C40.0887 67.7401 39.8637 68.7451 39.4137 69.5551C38.9737 70.3651 38.3387 70.9751 37.5087 71.3851C36.6787 71.7951 35.6737 72.0001 34.4937 72.0001H31.5087V61.2901H34.8087C35.8887 61.2901 36.8237 61.4901 37.6137 61.8901C38.4037 62.2901 39.0137 62.8801 39.4437 63.6601C39.8737 64.4301 40.0887 65.3901 40.0887 66.5401ZM38.6637 66.5851C38.6637 65.6351 38.5037 64.8551 38.1837 64.2451C37.8737 63.6351 37.4137 63.1851 36.8037 62.8951C36.2037 62.5951 35.4737 62.4451 34.6137 62.4451H32.8587V70.8451H34.3137C35.7637 70.8451 36.8487 70.4901 37.5687 69.7801C38.2987 69.0601 38.6637 67.9951 38.6637 66.5851ZM48.8928 72.0001L47.6028 68.6851H43.3578L42.0828 72.0001H40.7178L44.9028 61.2451H46.1178L50.2878 72.0001H48.8928ZM45.9978 64.2451C45.9678 64.1651 45.9178 64.0201 45.8478 63.8101C45.7778 63.6001 45.7078 63.3851 45.6378 63.1651C45.5778 62.9351 45.5278 62.7601 45.4878 62.6401C45.4378 62.8401 45.3828 63.0451 45.3228 63.2551C45.2728 63.4551 45.2178 63.6401 45.1578 63.8101C45.1078 63.9801 45.0628 64.1251 45.0228 64.2451L43.8078 67.4851H47.1978L45.9978 64.2451ZM54.0882 72.0001H52.7382V62.4751H49.3932V61.2901H57.4182V62.4751H54.0882V72.0001ZM65.0181 72.0001H59.0331V61.2901H65.0181V62.4751H60.3831V65.8201H64.7481V66.9901H60.3831V70.8151H65.0181V72.0001Z" fill="white"/>
</svg>
