<svg width="24" height="24" viewBox="0 0 24 24" fill="none" xmlns="http://www.w3.org/2000/svg">
<path d="M20 8.7002H4C3.80109 8.7002 3.61032 8.62118 3.46967 8.48053C3.32902 8.33987 3.25 8.14911 3.25 7.9502C3.25 7.75128 3.32902 7.56052 3.46967 7.41987C3.61032 7.27921 3.80109 7.2002 4 7.2002H20C20.1989 7.2002 20.3897 7.27921 20.5303 7.41987C20.671 7.56052 20.75 7.75128 20.75 7.9502C20.75 8.14911 20.671 8.33987 20.5303 8.48053C20.3897 8.62118 20.1989 8.7002 20 8.7002Z" fill="#090909"/>
<path d="M16.44 20.7503H7.56C7.24309 20.772 6.92503 20.7305 6.62427 20.6283C6.3235 20.5262 6.04601 20.3653 5.80788 20.1551C5.56975 19.9449 5.37572 19.6895 5.23704 19.4037C5.09836 19.1179 5.01779 18.8074 5 18.4903V8.00029C5 7.80138 5.07902 7.61061 5.21967 7.46996C5.36032 7.32931 5.55109 7.25029 5.75 7.25029C5.94891 7.25029 6.13968 7.32931 6.28033 7.46996C6.42098 7.61061 6.5 7.80138 6.5 8.00029V18.4903C6.5 18.9003 6.97 19.2503 7.5 19.2503H16.38C16.94 19.2503 17.38 18.9003 17.38 18.4903V8.00029C17.38 7.78546 17.4653 7.57944 17.6172 7.42753C17.7691 7.27563 17.9752 7.19029 18.19 7.19029C18.4048 7.19029 18.6109 7.27563 18.7628 7.42753C18.9147 7.57944 19 7.78546 19 8.00029V18.4903C18.9822 18.8074 18.9016 19.1179 18.763 19.4037C18.6243 19.6895 18.4303 19.9449 18.1921 20.1551C17.954 20.3653 17.6765 20.5262 17.3757 20.6283C17.075 20.7305 16.7569 20.772 16.44 20.7503ZM16.56 7.75029C16.4611 7.75164 16.363 7.73315 16.2714 7.69594C16.1798 7.65873 16.0966 7.60353 16.0267 7.53362C15.9568 7.4637 15.9016 7.38049 15.8644 7.28889C15.8271 7.19728 15.8087 7.09915 15.81 7.00029V5.51029C15.81 5.10029 15.33 4.75029 14.81 4.75029H9.22C8.67 4.75029 8.22 5.10029 8.22 5.51029V7.00029C8.22 7.1992 8.14098 7.38997 8.00033 7.53062C7.85968 7.67127 7.66891 7.75029 7.47 7.75029C7.27109 7.75029 7.08032 7.67127 6.93967 7.53062C6.79902 7.38997 6.72 7.1992 6.72 7.00029V5.51029C6.75872 4.8816 7.04203 4.29305 7.50929 3.87066C7.97655 3.44826 8.5906 3.22558 9.22 3.25029H14.78C15.4145 3.21748 16.0362 3.43651 16.51 3.85974C16.9838 4.28297 17.2713 4.87617 17.31 5.51029V7.00029C17.3113 7.09962 17.2929 7.19822 17.2558 7.29037C17.2187 7.38253 17.1637 7.46639 17.0939 7.5371C17.0241 7.6078 16.941 7.66394 16.8493 7.70226C16.7577 7.74057 16.6593 7.7603 16.56 7.76029V7.75029Z" fill="#090909"/>
<path d="M10.22 16.9997C10.0219 16.9971 9.8326 16.9173 9.6925 16.7772C9.55241 16.6371 9.47256 16.4478 9.46997 16.2497V11.7197C9.46997 11.5208 9.54899 11.33 9.68964 11.1894C9.83029 11.0487 10.0211 10.9697 10.22 10.9697C10.4189 10.9697 10.6096 11.0487 10.7503 11.1894C10.891 11.33 10.97 11.5208 10.97 11.7197V16.2397C10.9713 16.3391 10.9529 16.4377 10.9158 16.5298C10.8787 16.622 10.8236 16.7058 10.7539 16.7765C10.6841 16.8472 10.601 16.9034 10.5093 16.9417C10.4177 16.98 10.3193 16.9997 10.22 16.9997ZM13.78 16.9997C13.5811 16.9997 13.3903 16.9207 13.2496 16.7801C13.109 16.6394 13.03 16.4486 13.03 16.2497V11.7197C13.03 11.5208 13.109 11.33 13.2496 11.1894C13.3903 11.0487 13.5811 10.9697 13.78 10.9697C13.9789 10.9697 14.1696 11.0487 14.3103 11.1894C14.451 11.33 14.53 11.5208 14.53 11.7197V16.2397C14.53 16.4396 14.4513 16.6314 14.3109 16.7736C14.1705 16.9159 13.9798 16.9971 13.78 16.9997Z" fill="#090909"/>
</svg>
