<svg width="61" height="55" viewBox="0 0 61 55" fill="none" xmlns="http://www.w3.org/2000/svg">
<g clip-path="url(#clip0_33_280)">
<path d="M22.4988 -0.0183487V2.5988C22.3483 2.5988 22.1351 2.5861 21.8592 2.56085C21.5833 2.53552 21.3826 2.5229 21.2572 2.5229C19.2757 2.5229 17.9339 3.18034 17.2316 4.49523C16.5293 5.81011 16.178 8.93299 16.178 13.8638V19.8567V27.708C16.178 31.8044 16.3035 34.8261 16.5543 36.7731C16.8051 38.7202 17.219 40.3259 17.7959 41.5901C19.0249 44.321 20.8308 46.4072 23.2137 47.8485C25.6216 49.2645 28.5185 49.9725 31.9046 49.9725C34.4379 49.9725 36.6577 49.6059 38.564 48.8726C40.4702 48.1393 42.1005 47.0141 43.455 45.4969C44.8094 43.9797 45.7626 42.1212 46.3144 39.9213C46.8662 37.7214 47.1421 34.0549 47.1421 28.9218C47.1421 22.7519 47.0668 17.5683 46.9163 13.3707C46.791 9.1479 46.6153 6.59395 46.3896 5.70897C46.0385 4.5458 45.4867 3.73664 44.7342 3.28149C44.0068 2.82633 42.8154 2.5988 41.1599 2.5988H40.5956V-0.0183487C40.8966 -0.0183487 41.3356 -0.00572684 41.9125 0.019519C45.3738 0.196563 47.8444 0.285086 49.3242 0.285086C50.779 0.285086 53.2371 0.196563 56.6984 0.019519C57.3004 -0.00572684 57.7393 -0.0183487 58.0152 -0.0183487V2.5988H57.5638C56.0839 2.5988 54.9678 2.78839 54.2153 3.16772C53.4879 3.54697 52.9612 4.17917 52.6351 5.06415C52.3592 5.79749 52.1586 7.73187 52.0331 10.8674C51.9077 13.9775 51.8451 19.0222 51.8451 26.0012V29.7941C51.8451 33.7893 51.6945 36.849 51.3935 38.9731C51.0925 41.0718 50.6035 42.9303 49.9262 44.5487C48.5216 47.9118 46.1012 50.5542 42.6649 52.4759C39.2286 54.3977 35.1778 55.3586 30.5126 55.3586C27.277 55.3586 24.2922 54.8781 21.5582 53.9172C18.8494 52.9563 16.5418 51.5656 14.6355 49.745C12.5537 47.8233 11.0739 45.5601 10.1959 42.9557C9.3181 40.3259 8.87914 36.6594 8.87914 31.9561C8.87914 30.1355 8.90426 27.1643 8.95435 23.0427C9.00459 18.8958 9.02963 15.6591 9.02963 13.3328V12.1569C9.02963 7.80769 8.66596 5.12742 7.93855 4.11597C7.23625 3.10452 5.84419 2.5988 3.76236 2.5988H3.08514V-0.0183487C4.86598 0.0827964 6.55904 0.158612 8.16432 0.209184C9.76958 0.259757 11.2369 0.285086 12.5662 0.285086C14.1715 0.285086 15.8018 0.259757 17.4573 0.209184C19.1127 0.158612 20.7932 0.0827964 22.4988 -0.0183487Z" fill="#090909"/>
<path d="M52.171 21.7405H8.82892V33.8779H52.171V21.7405Z" fill="white"/>
<path d="M15.7316 29.2009C15.7316 29.7997 15.6112 30.3418 15.3704 30.8273C15.1296 31.3047 14.7604 31.685 14.2628 31.9682C13.7732 32.2434 13.1471 32.3809 12.3846 32.3809C11.3171 32.3809 10.5024 32.0896 9.94059 31.507C9.38677 30.9163 9.10986 30.1395 9.10986 29.1766V23.5934H10.1934V29.2131C10.1934 29.917 10.378 30.4632 10.7472 30.8516C11.1245 31.24 11.6903 31.4342 12.4448 31.4342C12.9665 31.4342 13.3879 31.3411 13.7089 31.155C14.038 30.9608 14.2788 30.6979 14.4313 30.3661C14.5838 30.0263 14.6601 29.6379 14.6601 29.2009V23.5934H15.7316V29.2009ZM20.2758 23.5934C21.3995 23.5934 22.2182 23.816 22.7319 24.261C23.2456 24.706 23.5024 25.3331 23.5024 26.1423C23.5024 26.4983 23.4422 26.8422 23.3218 27.174C23.2095 27.4976 23.0208 27.7889 22.756 28.0479C22.4911 28.3068 22.1379 28.5131 21.6965 28.6669C21.255 28.8125 20.7133 28.8853 20.0712 28.8853H19.0839V32.2595H18.0004V23.5934H20.2758ZM20.1795 24.528H19.0839V27.9508H19.9508C20.4966 27.9508 20.95 27.8941 21.3112 27.7808C21.6724 27.6595 21.9413 27.4693 22.1179 27.2104C22.2945 26.9515 22.3827 26.6116 22.3827 26.1908C22.3827 25.6325 22.2062 25.2158 21.853 24.9407C21.4998 24.6656 20.942 24.528 20.1795 24.528ZM32.1765 27.8415C32.1765 28.8125 31.9959 29.6257 31.6347 30.2811C31.2815 30.9366 30.7718 31.4302 30.1057 31.7619C29.4395 32.0937 28.6328 32.2595 27.6857 32.2595H25.2899V23.5934H27.9386C28.8054 23.5934 29.5559 23.7553 30.1899 24.0789C30.824 24.4026 31.3136 24.88 31.6588 25.5111C32.0039 26.1342 32.1765 26.911 32.1765 27.8415ZM31.0327 27.8779C31.0327 27.1092 30.9043 26.4781 30.6474 25.9845C30.3986 25.4909 30.0294 25.1268 29.5398 24.8921C29.0582 24.6494 28.4723 24.528 27.782 24.528H26.3734V31.325H27.5413C28.7051 31.325 29.5759 31.0377 30.1538 30.4632C30.7397 29.8806 31.0327 29.0189 31.0327 27.8779ZM39.2429 32.2595L38.2075 29.5772H34.8003L33.777 32.2595H32.6814L36.0404 23.557H37.0156L40.3626 32.2595H39.2429ZM36.9193 25.9845C36.8952 25.9198 36.8551 25.8024 36.7989 25.6325C36.7427 25.4626 36.6865 25.2886 36.6303 25.1106C36.5822 24.9245 36.542 24.7829 36.5099 24.6858C36.4698 24.8476 36.4257 25.0135 36.3775 25.1834C36.3374 25.3453 36.2932 25.495 36.2451 25.6325C36.2049 25.7701 36.1688 25.8874 36.1367 25.9845L35.1615 28.6062H37.8824L36.9193 25.9845ZM43.4129 32.2595H42.3293V24.5523H39.6445V23.5934H46.0857V24.5523H43.4129V32.2595ZM52.1856 32.2595H47.3818V23.5934H52.1856V24.5523H48.4654V27.2589H51.9689V28.2056H48.4654V31.3007H52.1856V32.2595Z" fill="#090909"/>
</g>
<defs>
<clipPath id="clip0_33_280">
<rect width="61" height="55" fill="white"/>
</clipPath>
</defs>
</svg>
