<svg width="18" height="18" viewBox="0 0 18 18" fill="none" xmlns="http://www.w3.org/2000/svg">
<g clip-path="url(#clip0_112_2519)">
<path fill-rule="evenodd" clip-rule="evenodd" d="M10.0082 17.7363C9.65633 18.0877 9.08663 18.0877 8.73563 17.7363C8.38373 17.385 8.38373 16.8163 8.73563 16.4659L14.5316 10.68C14.8151 10.397 14.6144 9.91364 14.2139 9.91364H0.900227C0.403427 9.91364 0.000226974 9.50301 0.000226974 9.00705V9.00309C0.000226974 8.50713 0.403427 8.11628 0.900227 8.11628H14.2139C14.6144 8.11628 14.8151 7.63202 14.5316 7.34899L8.70773 1.53415C8.35583 1.18284 8.35583 0.614117 8.70773 0.262811C9.05873 -0.0876037 9.62842 -0.0876037 9.98032 0.262811L17.4728 7.74362C18.1757 8.44534 18.1757 9.58282 17.4728 10.2845C17.2901 10.4669 9.86333 17.881 10.0082 17.7363Z" fill="black"/>
</g>
<defs>
<clipPath id="clip0_112_2519">
<rect width="18" height="18" fill="white" transform="matrix(-1 0 0 1 18 0)"/>
</clipPath>
</defs>
</svg>
