<svg width="18" height="18" viewBox="0 0 18 18" fill="none" xmlns="http://www.w3.org/2000/svg">
<g clip-path="url(#clip0_112_2513)">
<path fill-rule="evenodd" clip-rule="evenodd" d="M7.99177 17.7363C8.34367 18.0877 8.91337 18.0877 9.26437 17.7363C9.61627 17.385 9.61627 16.8163 9.26437 16.4659L3.46837 10.68C3.18487 10.397 3.38557 9.91364 3.78607 9.91364H17.0998C17.5966 9.91364 17.9998 9.50301 17.9998 9.00705V9.00309C17.9998 8.50713 17.5966 8.11628 17.0998 8.11628H3.78607C3.38557 8.11628 3.18487 7.63202 3.46837 7.34899L9.29227 1.53415C9.64417 1.18284 9.64417 0.614117 9.29227 0.262811C8.94127 -0.0876037 8.37158 -0.0876037 8.01968 0.262811L0.527175 7.74362C-0.175725 8.44534 -0.175725 9.58282 0.527175 10.2845C0.709875 10.4669 8.13667 17.881 7.99177 17.7363Z" fill="#D9D9D9"/>
</g>
<defs>
<clipPath id="clip0_112_2513">
<rect width="18" height="18" fill="white"/>
</clipPath>
</defs>
</svg>
